<?xml version="1.0" encoding="UTF-8"?>
<svg xmlns="http://www.w3.org/2000/svg" xmlns:xlink="http://www.w3.org/1999/xlink" width="389.126pt" height="133.875pt" viewBox="0 0 389.126 133.875">
<defs>
<g>
<g id="glyph-0-0">
<path d="M 3.15625 0 L 3.15625 -0.4375 L 2.234375 -0.4375 L 2.234375 -4.703125 L 2.078125 -4.703125 C 1.625 -4.296875 1.0625 -4.265625 0.640625 -4.25 L 0.640625 -3.8125 C 0.90625 -3.8125 1.265625 -3.828125 1.609375 -3.96875 L 1.609375 -0.4375 L 0.6875 -0.4375 L 0.6875 0 Z M 3.15625 0 "/>
</g>
<g id="glyph-0-1">
<path d="M 3.3125 0 L 3.3125 -0.53125 L 1.96875 -0.53125 C 1.890625 -0.53125 1.796875 -0.53125 1.71875 -0.53125 L 0.921875 -0.53125 L 2 -1.484375 C 2.125 -1.59375 2.46875 -1.84375 2.59375 -1.953125 C 2.90625 -2.234375 3.3125 -2.59375 3.3125 -3.203125 C 3.3125 -3.984375 2.734375 -4.703125 1.734375 -4.703125 C 1 -4.703125 0.546875 -4.3125 0.3125 -3.609375 L 0.625 -3.1875 C 0.796875 -3.78125 1.03125 -4.234375 1.640625 -4.234375 C 2.21875 -4.234375 2.671875 -3.8125 2.671875 -3.1875 C 2.671875 -2.609375 2.328125 -2.28125 1.90625 -1.890625 C 1.765625 -1.75 1.390625 -1.4375 1.25 -1.296875 C 1.046875 -1.125 0.5625 -0.65625 0.375 -0.484375 L 0.375 0 Z M 3.3125 0 "/>
</g>
<g id="glyph-0-2">
<path d="M 3.375 -1.265625 C 3.375 -1.828125 2.921875 -2.296875 2.375 -2.453125 C 2.90625 -2.71875 3.171875 -3.1875 3.171875 -3.640625 C 3.171875 -4.234375 2.5625 -4.703125 1.828125 -4.703125 C 1.203125 -4.703125 0.703125 -4.390625 0.40625 -3.96875 L 0.703125 -3.5625 C 0.984375 -4.125 1.484375 -4.28125 1.8125 -4.28125 C 2.21875 -4.28125 2.53125 -4.046875 2.53125 -3.640625 C 2.53125 -3.28125 2.28125 -2.828125 1.75 -2.734375 C 1.71875 -2.71875 1.6875 -2.71875 1.234375 -2.6875 L 1.234375 -2.234375 L 1.765625 -2.234375 C 2.4375 -2.234375 2.671875 -1.703125 2.671875 -1.265625 C 2.671875 -0.734375 2.34375 -0.3125 1.796875 -0.3125 C 1.3125 -0.3125 0.75 -0.546875 0.390625 -1 L 0.3125 -0.546875 C 0.703125 -0.09375 1.265625 0.140625 1.8125 0.140625 C 2.71875 0.140625 3.375 -0.53125 3.375 -1.265625 Z M 3.375 -1.265625 "/>
</g>
<g id="glyph-0-3">
<path d="M 4.390625 -1.625 L 4.390625 -4.828125 L 3.78125 -4.828125 L 3.78125 -1.625 C 3.78125 -0.6875 3.15625 -0.265625 2.5625 -0.265625 C 1.953125 -0.265625 1.375 -0.703125 1.375 -1.609375 L 1.375 -4.828125 L 0.671875 -4.828125 L 0.671875 -1.625 C 0.671875 -0.609375 1.546875 0.140625 2.546875 0.140625 C 3.546875 0.140625 4.390625 -0.609375 4.390625 -1.625 Z M 4.390625 -1.625 "/>
</g>
<g id="glyph-0-4">
<path d="M 2.65625 -0.90625 C 2.65625 -1.03125 2.65625 -1.296875 2.359375 -1.5625 C 2.09375 -1.796875 1.84375 -1.84375 1.515625 -1.90625 C 1.109375 -1.984375 0.78125 -2.046875 0.78125 -2.34375 C 0.78125 -2.75 1.296875 -2.75 1.390625 -2.75 C 1.796875 -2.75 2.09375 -2.65625 2.453125 -2.484375 L 2.53125 -2.96875 C 2.0625 -3.171875 1.71875 -3.1875 1.46875 -3.1875 C 1.296875 -3.1875 0.25 -3.1875 0.25 -2.265625 C 0.25 -1.9375 0.421875 -1.765625 0.515625 -1.671875 C 0.765625 -1.4375 1.046875 -1.375 1.421875 -1.3125 C 1.75 -1.25 2.125 -1.171875 2.125 -0.84375 C 2.125 -0.40625 1.546875 -0.40625 1.453125 -0.40625 C 1 -0.40625 0.578125 -0.5625 0.3125 -0.765625 L 0.203125 -0.234375 C 0.4375 -0.125 0.875 0.0625 1.453125 0.0625 C 1.765625 0.0625 2.0625 0.015625 2.328125 -0.171875 C 2.578125 -0.359375 2.65625 -0.671875 2.65625 -0.90625 Z M 2.65625 -0.90625 "/>
</g>
<g id="glyph-0-5">
<path d="M 3.0625 -1.515625 C 3.0625 -1.84375 3.03125 -2.3125 2.75 -2.703125 C 2.5 -3.0625 2.09375 -3.1875 1.75 -3.1875 C 0.890625 -3.1875 0.25 -2.453125 0.25 -1.5625 C 0.25 -0.671875 0.9375 0.0625 1.859375 0.0625 C 2.265625 0.0625 2.671875 -0.046875 3.03125 -0.265625 L 2.984375 -0.765625 C 2.59375 -0.484375 2.15625 -0.390625 1.859375 -0.390625 C 1.265625 -0.390625 0.796875 -0.890625 0.78125 -1.515625 Z M 2.640625 -1.9375 L 0.828125 -1.9375 C 0.984375 -2.5 1.390625 -2.734375 1.75 -2.734375 C 2.046875 -2.734375 2.5 -2.59375 2.640625 -1.9375 Z M 2.640625 -1.9375 "/>
</g>
<g id="glyph-0-6">
<path d="M 4.328125 -0.3125 L 4.296875 -0.84375 C 4.078125 -0.703125 3.859375 -0.5625 3.609375 -0.5 C 3.359375 -0.421875 3.109375 -0.40625 2.859375 -0.40625 C 2.40625 -0.40625 1.96875 -0.640625 1.65625 -1 C 1.328125 -1.390625 1.171875 -1.890625 1.171875 -2.40625 C 1.171875 -2.9375 1.328125 -3.4375 1.65625 -3.828125 C 1.96875 -4.1875 2.40625 -4.421875 2.859375 -4.421875 C 3.09375 -4.421875 3.3125 -4.390625 3.53125 -4.328125 C 3.75 -4.265625 3.953125 -4.15625 4.140625 -4.03125 L 4.25 -4.65625 C 4.03125 -4.734375 3.796875 -4.8125 3.5625 -4.84375 C 3.34375 -4.890625 3.09375 -4.90625 2.859375 -4.90625 C 2.21875 -4.90625 1.609375 -4.625 1.171875 -4.171875 C 0.71875 -3.703125 0.46875 -3.0625 0.46875 -2.40625 C 0.46875 -1.765625 0.71875 -1.125 1.171875 -0.65625 C 1.609375 -0.1875 2.21875 0.0625 2.859375 0.0625 C 3.125 0.0625 3.375 0.0625 3.625 0 C 3.875 -0.0625 4.109375 -0.1875 4.328125 -0.3125 Z M 4.328125 -0.3125 "/>
</g>
<g id="glyph-0-7">
<path d="M 3.234375 0 L 3.234375 -3.09375 L 2.625 -3.09375 L 2.625 -1.078125 C 2.625 -0.515625 2.15625 -0.34375 1.75 -0.34375 C 1.234375 -0.34375 1.1875 -0.484375 1.1875 -0.796875 L 1.1875 -3.09375 L 0.578125 -3.09375 L 0.578125 -0.765625 C 0.578125 -0.140625 0.84375 0.0625 1.328125 0.0625 C 1.625 0.0625 2.234375 0.015625 2.65625 -0.3125 L 2.65625 0 Z M 3.234375 0 "/>
</g>
<g id="glyph-0-8">
<path d="M 2.40625 -2.640625 L 2.40625 -3.15625 C 1.828125 -3.15625 1.40625 -2.859375 1.125 -2.5 L 1.125 -3.140625 L 0.59375 -3.140625 L 0.59375 0 L 1.171875 0 L 1.171875 -1.484375 C 1.171875 -2.234375 1.796875 -2.640625 2.40625 -2.640625 Z M 2.40625 -2.640625 "/>
</g>
<g id="glyph-0-9">
<path d="M 3.234375 0 L 3.234375 -2.0625 C 3.234375 -2.59375 3.078125 -3.15625 2.21875 -3.15625 C 1.828125 -3.15625 1.4375 -3 1.140625 -2.625 L 1.140625 -3.140625 L 0.578125 -3.140625 L 0.578125 0 L 1.1875 0 L 1.1875 -1.6875 C 1.1875 -2.15625 1.375 -2.703125 1.90625 -2.703125 C 2.625 -2.703125 2.625 -2.21875 2.625 -2.015625 L 2.625 0 Z M 3.234375 0 "/>
</g>
<g id="glyph-0-10">
<path d="M 2.46875 -0.1875 L 2.34375 -0.625 C 2.109375 -0.46875 1.875 -0.40625 1.671875 -0.40625 C 1.390625 -0.40625 1.3125 -0.703125 1.3125 -1.015625 L 1.3125 -2.65625 L 2.34375 -2.65625 L 2.34375 -3.09375 L 1.3125 -3.09375 L 1.3125 -3.96875 L 0.765625 -3.96875 L 0.765625 -3.09375 L 0.140625 -3.09375 L 0.140625 -2.65625 L 0.75 -2.65625 L 0.75 -0.890625 C 0.75 -0.421875 0.875 0.0625 1.375 0.0625 C 1.875 0.0625 2.25 -0.09375 2.46875 -0.1875 Z M 2.46875 -0.1875 "/>
</g>
<g id="glyph-0-11">
<path d="M 1.375 0 L 1.375 -4.828125 L 0.671875 -4.828125 L 0.671875 0 Z M 1.375 0 "/>
</g>
<g id="glyph-0-12">
<path d="M 3.0625 -0.25 L 3.03125 -0.765625 C 2.671875 -0.53125 2.296875 -0.40625 1.875 -0.40625 C 1.234375 -0.40625 0.859375 -0.921875 0.859375 -1.546875 C 0.859375 -2.09375 1.140625 -2.71875 1.890625 -2.71875 C 2.359375 -2.71875 2.59375 -2.609375 2.9375 -2.390625 L 3.03125 -2.890625 C 2.609375 -3.09375 2.4375 -3.1875 1.890625 -3.1875 C 0.84375 -3.1875 0.25 -2.34375 0.25 -1.546875 C 0.25 -0.703125 0.921875 0.0625 1.859375 0.0625 C 2.34375 0.0625 2.765625 -0.078125 3.0625 -0.25 Z M 3.0625 -0.25 "/>
</g>
<g id="glyph-0-13">
<path d="M 3.484375 -1.515625 C 3.484375 -2.4375 2.75 -3.1875 1.84375 -3.1875 C 0.9375 -3.1875 0.203125 -2.4375 0.203125 -1.515625 C 0.203125 -0.640625 0.953125 0.0625 1.84375 0.0625 C 2.75 0.0625 3.484375 -0.640625 3.484375 -1.515625 Z M 2.875 -1.59375 C 2.875 -0.8125 2.375 -0.40625 1.84375 -0.40625 C 1.296875 -0.40625 0.8125 -0.8125 0.8125 -1.59375 C 0.8125 -2.390625 1.328125 -2.734375 1.84375 -2.734375 C 2.359375 -2.734375 2.875 -2.375 2.875 -1.59375 Z M 2.875 -1.59375 "/>
</g>
<g id="glyph-0-14">
<path d="M 5.28125 0 L 5.28125 -2.0625 C 5.28125 -2.59375 5.125 -3.15625 4.265625 -3.15625 C 3.6875 -3.15625 3.328125 -2.8125 3.15625 -2.59375 C 3.09375 -2.78125 2.90625 -3.15625 2.21875 -3.15625 C 1.828125 -3.15625 1.4375 -3 1.140625 -2.625 L 1.140625 -3.140625 L 0.578125 -3.140625 L 0.578125 0 L 1.1875 0 L 1.1875 -1.6875 C 1.1875 -2.15625 1.375 -2.703125 1.90625 -2.703125 C 2.625 -2.703125 2.625 -2.21875 2.625 -2.015625 L 2.625 0 L 3.234375 0 L 3.234375 -1.6875 C 3.234375 -2.15625 3.421875 -2.703125 3.96875 -2.703125 C 4.671875 -2.703125 4.671875 -2.21875 4.671875 -2.015625 L 4.671875 0 Z M 5.28125 0 "/>
</g>
<g id="glyph-0-15">
<path d="M 1.171875 0 L 1.171875 -3.09375 L 0.578125 -3.09375 L 0.578125 0 Z M 1.234375 -3.890625 L 1.234375 -4.59375 L 0.53125 -4.59375 L 0.53125 -3.890625 Z M 1.234375 -3.890625 "/>
</g>
<g id="glyph-0-16">
<path d="M 3.578125 -2.6875 L 3.5 -3.15625 C 3.34375 -3.15625 2.875 -3.15625 2.34375 -2.953125 L 2.34375 -2.9375 C 2.09375 -3.109375 1.84375 -3.15625 1.640625 -3.15625 C 0.953125 -3.15625 0.453125 -2.625 0.453125 -2.015625 C 0.453125 -1.78125 0.53125 -1.53125 0.703125 -1.328125 C 0.59375 -1.21875 0.5 -1.015625 0.5 -0.765625 C 0.5 -0.484375 0.609375 -0.3125 0.671875 -0.234375 C 0.28125 0 0.203125 0.3125 0.203125 0.484375 C 0.203125 1.015625 0.9375 1.421875 1.84375 1.421875 C 2.75 1.421875 3.484375 1.015625 3.484375 0.484375 C 3.484375 -0.5 2.265625 -0.5 1.953125 -0.5 L 1.3125 -0.5 C 1.203125 -0.5 0.90625 -0.5 0.90625 -0.859375 C 0.90625 -1 0.953125 -1.078125 0.953125 -1.078125 C 1.203125 -0.9375 1.453125 -0.890625 1.640625 -0.890625 C 2.3125 -0.890625 2.828125 -1.421875 2.828125 -2.015625 C 2.828125 -2.234375 2.765625 -2.4375 2.640625 -2.625 C 2.609375 -2.671875 2.609375 -2.6875 2.609375 -2.6875 C 2.609375 -2.71875 3.03125 -2.71875 3.0625 -2.71875 C 3.0625 -2.71875 3.328125 -2.71875 3.578125 -2.6875 Z M 2.28125 -2.015625 C 2.28125 -1.484375 1.9375 -1.3125 1.640625 -1.3125 C 1.265625 -1.3125 0.984375 -1.546875 0.984375 -2.015625 C 0.984375 -2.5625 1.328125 -2.71875 1.640625 -2.71875 C 2.015625 -2.71875 2.28125 -2.484375 2.28125 -2.015625 Z M 2.953125 0.484375 C 2.953125 0.78125 2.421875 1 1.84375 1 C 1.265625 1 0.734375 0.78125 0.734375 0.484375 C 0.734375 0.453125 0.734375 0.046875 1.296875 0.046875 L 1.96875 0.046875 C 2.125 0.046875 2.953125 0.046875 2.953125 0.484375 Z M 2.953125 0.484375 "/>
</g>
<g id="glyph-1-0">
<path d="M 4.546875 -0.203125 L 3.359375 -2.21875 C 3.796875 -2.328125 4.453125 -2.59375 4.453125 -3.453125 C 4.453125 -4.828125 2.953125 -4.828125 2.640625 -4.828125 L 0.96875 -4.828125 C 0.71875 -4.828125 0.625 -4.75 0.625 -4.484375 L 0.625 -0.328125 C 0.625 -0.078125 0.703125 0 0.96875 0 L 1.296875 0 C 1.5625 0 1.640625 -0.09375 1.640625 -0.328125 L 1.640625 -2.15625 L 2.40625 -2.15625 L 3.546875 -0.171875 C 3.640625 0 3.71875 0 3.875 0 L 4.28125 0 C 4.421875 0 4.546875 0 4.546875 -0.203125 Z M 3.484375 -3.453125 C 3.484375 -3.03125 3.390625 -2.65625 2.53125 -2.65625 L 1.640625 -2.65625 L 1.640625 -4.234375 L 2.53125 -4.234375 C 3.34375 -4.234375 3.484375 -3.90625 3.484375 -3.453125 Z M 3.484375 -3.453125 "/>
</g>
<g id="glyph-2-0">
<path d="M 3.28125 -0.296875 L 3.28125 -0.421875 C 3.28125 -0.46875 3.234375 -0.5 3.171875 -0.5 C 2.6875 -0.40625 2.265625 -0.15625 1.953125 0.234375 L 1.953125 -3.3125 C 1.953125 -3.40625 1.890625 -3.453125 1.8125 -3.453125 C 1.75 -3.453125 1.671875 -3.40625 1.671875 -3.3125 L 1.671875 0.234375 C 1.375 -0.15625 0.9375 -0.40625 0.46875 -0.5 C 0.40625 -0.5 0.359375 -0.46875 0.359375 -0.421875 L 0.359375 -0.296875 C 0.359375 -0.265625 0.390625 -0.234375 0.4375 -0.21875 C 1.046875 -0.109375 1.546875 0.328125 1.734375 0.90625 C 1.75 0.9375 1.78125 0.96875 1.8125 0.96875 C 1.859375 0.96875 1.890625 0.9375 1.890625 0.90625 C 2.09375 0.328125 2.59375 -0.109375 3.203125 -0.21875 C 3.25 -0.234375 3.28125 -0.265625 3.28125 -0.296875 Z M 3.28125 -0.296875 "/>
</g>
<g id="glyph-2-1">
<path d="M 3.28125 -2.0625 L 3.28125 -2.1875 C 3.28125 -2.21875 3.25 -2.25 3.203125 -2.265625 C 2.59375 -2.375 2.09375 -2.8125 1.890625 -3.390625 C 1.890625 -3.421875 1.859375 -3.453125 1.8125 -3.453125 C 1.78125 -3.453125 1.75 -3.421875 1.734375 -3.390625 C 1.546875 -2.8125 1.046875 -2.375 0.4375 -2.265625 C 0.390625 -2.25 0.359375 -2.21875 0.359375 -2.1875 L 0.359375 -2.0625 C 0.359375 -2.015625 0.40625 -1.984375 0.46875 -1.984375 C 0.9375 -2.078125 1.375 -2.328125 1.671875 -2.71875 L 1.671875 0.828125 C 1.671875 0.921875 1.75 0.96875 1.8125 0.96875 C 1.890625 0.96875 1.953125 0.921875 1.953125 0.828125 L 1.953125 -2.71875 C 2.265625 -2.328125 2.6875 -2.078125 3.171875 -1.984375 C 3.234375 -1.984375 3.28125 -2.015625 3.28125 -2.0625 Z M 3.28125 -2.0625 "/>
</g>
<g id="glyph-3-0">
<path d="M 2.25 0 L 2.25 -0.3125 L 1.59375 -0.3125 L 1.59375 -3.359375 L 1.484375 -3.359375 C 1.15625 -3.0625 0.75 -3.046875 0.453125 -3.03125 L 0.453125 -2.71875 C 0.65625 -2.734375 0.90625 -2.734375 1.140625 -2.84375 L 1.140625 -0.3125 L 0.484375 -0.3125 L 0.484375 0 Z M 2.25 0 "/>
</g>
<g id="glyph-3-1">
<path d="M 3.140625 -1.15625 L 3.140625 -3.453125 L 2.703125 -3.453125 L 2.703125 -1.15625 C 2.703125 -0.484375 2.25 -0.1875 1.828125 -0.1875 C 1.40625 -0.1875 0.984375 -0.5 0.984375 -1.15625 L 0.984375 -3.453125 L 0.484375 -3.453125 L 0.484375 -1.15625 C 0.484375 -0.4375 1.109375 0.109375 1.828125 0.109375 C 2.53125 0.109375 3.140625 -0.4375 3.140625 -1.15625 Z M 3.140625 -1.15625 "/>
</g>
<g id="glyph-3-2">
<path d="M 2.3125 0 L 2.3125 -1.46875 C 2.3125 -1.859375 2.203125 -2.25 1.578125 -2.25 C 1.296875 -2.25 1.03125 -2.140625 0.8125 -1.875 L 0.8125 -2.234375 L 0.40625 -2.234375 L 0.40625 0 L 0.84375 0 L 0.84375 -1.203125 C 0.84375 -1.53125 0.984375 -1.921875 1.359375 -1.921875 C 1.875 -1.921875 1.875 -1.578125 1.875 -1.4375 L 1.875 0 Z M 2.3125 0 "/>
</g>
<g id="glyph-3-3">
<path d="M 3.78125 0 L 3.78125 -1.46875 C 3.78125 -1.859375 3.65625 -2.25 3.046875 -2.25 C 2.640625 -2.25 2.375 -2.015625 2.25 -1.859375 C 2.203125 -1.984375 2.078125 -2.25 1.578125 -2.25 C 1.296875 -2.25 1.03125 -2.140625 0.8125 -1.875 L 0.8125 -2.234375 L 0.40625 -2.234375 L 0.40625 0 L 0.84375 0 L 0.84375 -1.203125 C 0.84375 -1.53125 0.984375 -1.921875 1.359375 -1.921875 C 1.875 -1.921875 1.875 -1.578125 1.875 -1.4375 L 1.875 0 L 2.3125 0 L 2.3125 -1.203125 C 2.3125 -1.53125 2.453125 -1.921875 2.828125 -1.921875 C 3.34375 -1.921875 3.34375 -1.578125 3.34375 -1.4375 L 3.34375 0 Z M 3.78125 0 "/>
</g>
<g id="glyph-3-4">
<path d="M 2.171875 0 L 2.171875 -1.4375 C 2.171875 -1.9375 1.78125 -2.28125 1.28125 -2.28125 C 0.96875 -2.28125 0.734375 -2.21875 0.453125 -2.0625 L 0.484375 -1.703125 C 0.65625 -1.8125 0.890625 -1.96875 1.28125 -1.96875 C 1.5 -1.96875 1.734375 -1.796875 1.734375 -1.421875 L 1.734375 -1.234375 C 1 -1.203125 0.265625 -1.046875 0.265625 -0.59375 C 0.265625 -0.34375 0.4375 0.046875 0.875 0.046875 C 1.09375 0.046875 1.484375 0 1.75 -0.1875 L 1.75 0 Z M 1.734375 -0.703125 C 1.734375 -0.609375 1.734375 -0.484375 1.5625 -0.375 C 1.40625 -0.28125 1.203125 -0.28125 1.15625 -0.28125 C 0.875 -0.28125 0.671875 -0.40625 0.671875 -0.59375 C 0.671875 -0.90625 1.515625 -0.9375 1.734375 -0.953125 Z M 1.734375 -0.703125 "/>
</g>
<g id="glyph-3-5">
<path d="M 1.765625 -0.140625 L 1.671875 -0.453125 C 1.515625 -0.328125 1.34375 -0.296875 1.203125 -0.296875 C 0.984375 -0.296875 0.9375 -0.5 0.9375 -0.71875 L 0.9375 -1.890625 L 1.671875 -1.890625 L 1.671875 -2.203125 L 0.9375 -2.203125 L 0.9375 -2.84375 L 0.546875 -2.84375 L 0.546875 -2.203125 L 0.09375 -2.203125 L 0.09375 -1.890625 L 0.53125 -1.890625 L 0.53125 -0.640625 C 0.53125 -0.296875 0.625 0.046875 0.984375 0.046875 C 1.34375 0.046875 1.609375 -0.0625 1.765625 -0.140625 Z M 1.765625 -0.140625 "/>
</g>
<g id="glyph-3-6">
<path d="M 2.1875 -0.171875 L 2.15625 -0.546875 C 1.90625 -0.375 1.640625 -0.296875 1.34375 -0.296875 C 0.875 -0.296875 0.609375 -0.65625 0.609375 -1.109375 C 0.609375 -1.484375 0.8125 -1.9375 1.34375 -1.9375 C 1.6875 -1.9375 1.84375 -1.875 2.109375 -1.703125 L 2.171875 -2.0625 C 1.875 -2.21875 1.734375 -2.28125 1.34375 -2.28125 C 0.609375 -2.28125 0.171875 -1.671875 0.171875 -1.109375 C 0.171875 -0.5 0.65625 0.046875 1.328125 0.046875 C 1.671875 0.046875 1.984375 -0.046875 2.1875 -0.171875 Z M 2.1875 -0.171875 "/>
</g>
<g id="glyph-3-7">
<path d="M 2.3125 0 L 2.3125 -1.46875 C 2.3125 -1.859375 2.203125 -2.25 1.578125 -2.25 C 1.15625 -2.25 0.921875 -2 0.828125 -1.90625 L 0.828125 -3.453125 L 0.40625 -3.453125 L 0.40625 0 L 0.84375 0 L 0.84375 -1.203125 C 0.84375 -1.53125 0.984375 -1.921875 1.359375 -1.921875 C 1.875 -1.921875 1.875 -1.578125 1.875 -1.4375 L 1.875 0 Z M 2.3125 0 "/>
</g>
<g id="glyph-4-0">
<path d="M 5.15625 -1.5 C 5.15625 -2.1875 4.40625 -2.765625 3.53125 -2.890625 C 4.359375 -3.078125 4.921875 -3.5625 4.921875 -4.140625 C 4.921875 -4.875 4 -5.515625 2.828125 -5.515625 L 0.796875 -5.515625 L 0.796875 0 L 3.0625 0 C 4.234375 0 5.15625 -0.703125 5.15625 -1.5 Z M 4.21875 -4.125 C 4.21875 -3.59375 3.5 -3.140625 2.59375 -3.140625 L 1.546875 -3.140625 L 1.546875 -5.046875 L 2.59375 -5.046875 C 3.484375 -5.046875 4.21875 -4.640625 4.21875 -4.125 Z M 4.4375 -1.5 C 4.4375 -0.921875 3.6875 -0.46875 2.8125 -0.46875 L 1.546875 -0.46875 L 1.546875 -2.609375 L 2.6875 -2.609375 C 3.6875 -2.609375 4.4375 -2.09375 4.4375 -1.5 Z M 4.4375 -1.5 "/>
</g>
<g id="glyph-4-1">
<path d="M 3.46875 0 L 3.46875 -2.296875 C 3.46875 -3.109375 2.84375 -3.65625 2.0625 -3.65625 C 1.5625 -3.65625 1.171875 -3.546875 0.734375 -3.3125 L 0.78125 -2.734375 C 1.046875 -2.90625 1.4375 -3.140625 2.0625 -3.140625 C 2.40625 -3.140625 2.78125 -2.875 2.78125 -2.28125 L 2.78125 -1.96875 C 1.59375 -1.921875 0.4375 -1.671875 0.4375 -0.9375 C 0.4375 -0.546875 0.703125 0.078125 1.40625 0.078125 C 1.75 0.078125 2.375 0.015625 2.796875 -0.296875 L 2.796875 0 Z M 2.78125 -1.125 C 2.78125 -0.96875 2.78125 -0.765625 2.5 -0.59375 C 2.25 -0.453125 1.9375 -0.453125 1.84375 -0.453125 C 1.40625 -0.453125 1.078125 -0.640625 1.078125 -0.953125 C 1.078125 -1.453125 2.421875 -1.5 2.78125 -1.515625 Z M 2.78125 -1.125 "/>
</g>
<g id="glyph-4-2">
<path d="M 3.046875 -1.03125 C 3.046875 -1.171875 3.03125 -1.484375 2.703125 -1.796875 C 2.40625 -2.046875 2.109375 -2.109375 1.734375 -2.171875 C 1.265625 -2.265625 0.90625 -2.34375 0.90625 -2.6875 C 0.90625 -3.140625 1.484375 -3.140625 1.59375 -3.140625 C 2.046875 -3.140625 2.40625 -3.046875 2.796875 -2.84375 L 2.90625 -3.40625 C 2.359375 -3.625 1.96875 -3.65625 1.671875 -3.65625 C 1.484375 -3.65625 0.28125 -3.65625 0.28125 -2.59375 C 0.28125 -2.21875 0.484375 -2.015625 0.59375 -1.921875 C 0.859375 -1.640625 1.203125 -1.578125 1.625 -1.5 C 2 -1.421875 2.421875 -1.34375 2.421875 -0.96875 C 2.421875 -0.46875 1.765625 -0.46875 1.65625 -0.46875 C 1.140625 -0.46875 0.671875 -0.640625 0.34375 -0.859375 L 0.234375 -0.265625 C 0.515625 -0.140625 1 0.078125 1.65625 0.078125 C 2.015625 0.078125 2.359375 0.03125 2.65625 -0.1875 C 2.953125 -0.40625 3.046875 -0.765625 3.046875 -1.03125 Z M 3.046875 -1.03125 "/>
</g>
<g id="glyph-4-3">
<path d="M 3.5 -1.734375 C 3.5 -2.109375 3.453125 -2.640625 3.15625 -3.09375 C 2.859375 -3.5 2.390625 -3.65625 2 -3.65625 C 1.03125 -3.65625 0.28125 -2.796875 0.28125 -1.796875 C 0.28125 -0.765625 1.078125 0.078125 2.125 0.078125 C 2.578125 0.078125 3.0625 -0.0625 3.46875 -0.296875 L 3.421875 -0.859375 C 2.96875 -0.546875 2.46875 -0.453125 2.125 -0.453125 C 1.4375 -0.453125 0.921875 -1.015625 0.890625 -1.734375 Z M 3.015625 -2.21875 L 0.953125 -2.21875 C 1.125 -2.859375 1.59375 -3.125 2 -3.125 C 2.34375 -3.125 2.859375 -2.953125 3.015625 -2.21875 Z M 3.015625 -2.21875 "/>
</g>
<g id="glyph-4-4">
<path d="M 4.953125 -0.359375 L 4.90625 -0.96875 C 4.65625 -0.8125 4.40625 -0.65625 4.125 -0.5625 C 3.84375 -0.484375 3.5625 -0.46875 3.28125 -0.46875 C 2.75 -0.46875 2.25 -0.734375 1.90625 -1.140625 C 1.515625 -1.59375 1.34375 -2.171875 1.34375 -2.765625 C 1.34375 -3.359375 1.515625 -3.921875 1.90625 -4.375 C 2.25 -4.78125 2.75 -5.046875 3.28125 -5.046875 C 3.53125 -5.046875 3.78125 -5.03125 4.03125 -4.953125 C 4.28125 -4.875 4.515625 -4.75 4.734375 -4.609375 L 4.875 -5.328125 C 4.609375 -5.421875 4.34375 -5.5 4.078125 -5.546875 C 3.8125 -5.59375 3.546875 -5.609375 3.28125 -5.609375 C 2.546875 -5.609375 1.84375 -5.296875 1.34375 -4.765625 C 0.8125 -4.234375 0.53125 -3.5 0.53125 -2.765625 C 0.53125 -2.015625 0.8125 -1.28125 1.34375 -0.75 C 1.84375 -0.21875 2.546875 0.078125 3.28125 0.078125 C 3.578125 0.078125 3.859375 0.078125 4.15625 0 C 4.4375 -0.078125 4.703125 -0.21875 4.953125 -0.359375 Z M 4.953125 -0.359375 "/>
</g>
<g id="glyph-4-5">
<path d="M 3.703125 0 L 3.703125 -3.53125 L 3 -3.53125 L 3 -1.21875 C 3 -0.59375 2.46875 -0.390625 2 -0.390625 C 1.421875 -0.390625 1.359375 -0.546875 1.359375 -0.921875 L 1.359375 -3.53125 L 0.65625 -3.53125 L 0.65625 -0.859375 C 0.65625 -0.15625 0.96875 0.078125 1.53125 0.078125 C 1.859375 0.078125 2.546875 0.015625 3.03125 -0.359375 L 3.03125 0 Z M 3.703125 0 "/>
</g>
<g id="glyph-4-6">
<path d="M 2.765625 -3.015625 L 2.765625 -3.609375 C 2.09375 -3.609375 1.609375 -3.28125 1.28125 -2.859375 L 1.28125 -3.59375 L 0.671875 -3.59375 L 0.671875 0 L 1.34375 0 L 1.34375 -1.6875 C 1.34375 -2.546875 2.0625 -3.015625 2.765625 -3.015625 Z M 2.765625 -3.015625 "/>
</g>
<g id="glyph-4-7">
<path d="M 3.703125 0 L 3.703125 -2.359375 C 3.703125 -2.96875 3.515625 -3.609375 2.53125 -3.609375 C 2.078125 -3.609375 1.640625 -3.421875 1.296875 -3 L 1.296875 -3.59375 L 0.65625 -3.59375 L 0.65625 0 L 1.359375 0 L 1.359375 -1.9375 C 1.359375 -2.453125 1.578125 -3.078125 2.1875 -3.078125 C 3 -3.078125 3 -2.53125 3 -2.296875 L 3 0 Z M 3.703125 0 "/>
</g>
<g id="glyph-4-8">
<path d="M 2.8125 -0.21875 L 2.6875 -0.71875 C 2.421875 -0.53125 2.140625 -0.46875 1.921875 -0.46875 C 1.578125 -0.46875 1.5 -0.796875 1.5 -1.15625 L 1.5 -3.03125 L 2.671875 -3.03125 L 2.671875 -3.53125 L 1.5 -3.53125 L 1.5 -4.546875 L 0.875 -4.546875 L 0.875 -3.53125 L 0.15625 -3.53125 L 0.15625 -3.03125 L 0.859375 -3.03125 L 0.859375 -1.015625 C 0.859375 -0.484375 1 0.078125 1.5625 0.078125 C 2.140625 0.078125 2.578125 -0.109375 2.8125 -0.21875 Z M 2.8125 -0.21875 "/>
</g>
<g id="glyph-4-9">
<path d="M 1.578125 0 L 1.578125 -5.515625 L 0.765625 -5.515625 L 0.765625 0 Z M 1.578125 0 "/>
</g>
<g id="glyph-4-10">
<path d="M 3.5 -0.28125 L 3.453125 -0.859375 C 3.0625 -0.609375 2.625 -0.46875 2.140625 -0.46875 C 1.40625 -0.46875 0.984375 -1.0625 0.984375 -1.78125 C 0.984375 -2.390625 1.296875 -3.109375 2.15625 -3.109375 C 2.703125 -3.109375 2.953125 -2.984375 3.359375 -2.734375 L 3.46875 -3.3125 C 2.984375 -3.546875 2.78125 -3.65625 2.15625 -3.65625 C 0.96875 -3.65625 0.28125 -2.6875 0.28125 -1.765625 C 0.28125 -0.796875 1.046875 0.078125 2.125 0.078125 C 2.6875 0.078125 3.171875 -0.09375 3.5 -0.28125 Z M 3.5 -0.28125 "/>
</g>
<g id="glyph-4-11">
<path d="M 3.984375 -1.734375 C 3.984375 -2.796875 3.140625 -3.65625 2.109375 -3.65625 C 1.078125 -3.65625 0.234375 -2.78125 0.234375 -1.734375 C 0.234375 -0.734375 1.078125 0.078125 2.109375 0.078125 C 3.140625 0.078125 3.984375 -0.734375 3.984375 -1.734375 Z M 3.28125 -1.828125 C 3.28125 -0.921875 2.71875 -0.46875 2.109375 -0.46875 C 1.484375 -0.46875 0.9375 -0.9375 0.9375 -1.828125 C 0.9375 -2.734375 1.515625 -3.125 2.109375 -3.125 C 2.703125 -3.125 3.28125 -2.71875 3.28125 -1.828125 Z M 3.28125 -1.828125 "/>
</g>
<g id="glyph-4-12">
<path d="M 6.046875 0 L 6.046875 -2.359375 C 6.046875 -2.96875 5.859375 -3.609375 4.890625 -3.609375 C 4.21875 -3.609375 3.796875 -3.21875 3.609375 -2.96875 C 3.53125 -3.1875 3.328125 -3.609375 2.53125 -3.609375 C 2.078125 -3.609375 1.640625 -3.421875 1.296875 -3 L 1.296875 -3.59375 L 0.65625 -3.59375 L 0.65625 0 L 1.359375 0 L 1.359375 -1.9375 C 1.359375 -2.453125 1.578125 -3.078125 2.1875 -3.078125 C 3 -3.078125 3 -2.53125 3 -2.296875 L 3 0 L 3.703125 0 L 3.703125 -1.9375 C 3.703125 -2.453125 3.921875 -3.078125 4.53125 -3.078125 C 5.359375 -3.078125 5.359375 -2.53125 5.359375 -2.296875 L 5.359375 0 Z M 6.046875 0 "/>
</g>
<g id="glyph-4-13">
<path d="M 1.34375 0 L 1.34375 -3.53125 L 0.671875 -3.53125 L 0.671875 0 Z M 1.40625 -4.453125 L 1.40625 -5.25 L 0.609375 -5.25 L 0.609375 -4.453125 Z M 1.40625 -4.453125 "/>
</g>
<g id="glyph-4-14">
<path d="M 4.09375 -3.0625 L 4 -3.609375 C 3.828125 -3.609375 3.296875 -3.609375 2.6875 -3.375 L 2.671875 -3.359375 C 2.390625 -3.5625 2.109375 -3.609375 1.875 -3.609375 C 1.09375 -3.609375 0.515625 -3 0.515625 -2.3125 C 0.515625 -2.03125 0.609375 -1.75 0.796875 -1.53125 C 0.6875 -1.390625 0.5625 -1.171875 0.5625 -0.859375 C 0.5625 -0.5625 0.6875 -0.359375 0.765625 -0.265625 C 0.328125 -0.015625 0.234375 0.359375 0.234375 0.546875 C 0.234375 1.15625 1.078125 1.625 2.109375 1.625 C 3.15625 1.625 3.984375 1.15625 3.984375 0.546875 C 3.984375 -0.578125 2.578125 -0.578125 2.25 -0.578125 L 1.5 -0.578125 C 1.375 -0.578125 1.03125 -0.578125 1.03125 -0.984375 C 1.03125 -1.140625 1.09375 -1.21875 1.09375 -1.234375 C 1.375 -1.0625 1.65625 -1.015625 1.875 -1.015625 C 2.640625 -1.015625 3.234375 -1.625 3.234375 -2.3125 C 3.234375 -2.5625 3.15625 -2.796875 3.015625 -3 C 2.984375 -3.046875 2.984375 -3.0625 2.984375 -3.0625 C 2.984375 -3.109375 3.453125 -3.109375 3.5 -3.109375 C 3.5 -3.109375 3.8125 -3.109375 4.09375 -3.0625 Z M 2.609375 -2.3125 C 2.609375 -1.6875 2.21875 -1.5 1.875 -1.5 C 1.453125 -1.5 1.125 -1.78125 1.125 -2.3125 C 1.125 -2.921875 1.53125 -3.125 1.875 -3.125 C 2.296875 -3.125 2.609375 -2.84375 2.609375 -2.3125 Z M 3.375 0.5625 C 3.375 0.90625 2.78125 1.140625 2.109375 1.140625 C 1.4375 1.140625 0.84375 0.90625 0.84375 0.5625 C 0.84375 0.515625 0.84375 0.046875 1.484375 0.046875 L 2.25 0.046875 C 2.4375 0.046875 3.375 0.046875 3.375 0.5625 Z M 3.375 0.5625 "/>
</g>
<g id="glyph-4-15">
<path d="M 4.078125 -1.78125 C 4.078125 -2.734375 3.515625 -3.609375 2.734375 -3.609375 C 2.234375 -3.609375 1.734375 -3.453125 1.34375 -3.15625 L 1.34375 -5.515625 L 0.671875 -5.515625 L 0.671875 0 L 1.375 0 L 1.375 -0.375 C 1.546875 -0.21875 1.921875 0.078125 2.5 0.078125 C 3.375 0.078125 4.078125 -0.734375 4.078125 -1.78125 Z M 3.375 -1.78125 C 3.375 -0.796875 2.71875 -0.453125 2.15625 -0.453125 C 1.875 -0.453125 1.59375 -0.578125 1.375 -0.9375 L 1.375 -2.5 C 1.375 -2.625 1.375 -2.734375 1.640625 -2.90625 C 1.765625 -2.984375 1.984375 -3.078125 2.25 -3.078125 C 2.78125 -3.078125 3.375 -2.734375 3.375 -1.78125 Z M 3.375 -1.78125 "/>
</g>
<g id="glyph-4-16">
<path d="M 2.921875 -4.9375 L 2.921875 -5.515625 C 2.71875 -5.5625 2.46875 -5.59375 2.265625 -5.59375 C 1.4375 -5.59375 0.84375 -5.015625 0.84375 -4.21875 L 0.84375 -3.53125 L 0.234375 -3.53125 L 0.234375 -3.03125 L 0.84375 -3.03125 L 0.84375 0 L 1.515625 0 L 1.515625 -3.03125 L 2.421875 -3.03125 L 2.421875 -3.53125 L 1.484375 -3.53125 L 1.484375 -4.453125 C 1.484375 -5 1.984375 -5.078125 2.25 -5.078125 C 2.421875 -5.078125 2.625 -5.046875 2.921875 -4.9375 Z M 2.921875 -4.9375 "/>
</g>
<g id="glyph-4-17">
<path d="M 2.484375 -3.03125 L 2.484375 -3.53125 L 1.484375 -3.53125 L 1.484375 -4.46875 C 1.484375 -4.9375 1.75 -5.078125 1.984375 -5.078125 C 2.234375 -5.078125 2.4375 -4.96875 2.484375 -4.9375 L 2.484375 -5.515625 C 2.46875 -5.53125 2.25 -5.59375 1.984375 -5.59375 C 1.375 -5.59375 0.84375 -5.046875 0.84375 -4.234375 L 0.84375 -3.53125 L 0.234375 -3.53125 L 0.234375 -3.03125 L 0.84375 -3.03125 L 0.84375 0 L 1.515625 0 L 1.515625 -3.03125 Z M 3.84375 0 L 3.84375 -5.515625 L 3.171875 -5.515625 L 3.171875 0 Z M 3.84375 0 "/>
</g>
<g id="glyph-4-18">
<path d="M 1.34375 0 L 1.34375 -5.515625 L 0.671875 -5.515625 L 0.671875 0 Z M 1.34375 0 "/>
</g>
<g id="glyph-4-19">
<path d="M 3.765625 -3.53125 L 3.140625 -3.53125 C 2.046875 -0.859375 2 -0.65625 1.96875 -0.46875 L 1.953125 -0.46875 C 1.890625 -0.78125 1.671875 -1.34375 1.421875 -1.953125 L 0.78125 -3.53125 L 0.125 -3.53125 L 1.578125 0 L 2.3125 0 Z M 3.765625 -3.53125 "/>
</g>
<g id="glyph-4-20">
<path d="M 4.078125 -1.78125 C 4.078125 -2.734375 3.546875 -3.609375 2.765625 -3.609375 C 2.40625 -3.609375 1.8125 -3.5 1.34375 -3.15625 L 1.34375 -3.53125 L 0.671875 -3.53125 L 0.671875 1.546875 L 1.375 1.546875 L 1.375 -0.375 C 1.796875 0.015625 2.25 0.078125 2.515625 0.078125 C 3.359375 0.078125 4.078125 -0.71875 4.078125 -1.78125 Z M 3.375 -1.78125 C 3.375 -0.984375 2.78125 -0.453125 2.15625 -0.453125 C 2.046875 -0.453125 1.84375 -0.46875 1.640625 -0.625 C 1.40625 -0.8125 1.375 -0.9375 1.375 -1.078125 L 1.375 -2.640625 C 1.546875 -2.859375 1.859375 -3.0625 2.25 -3.0625 C 2.875 -3.0625 3.375 -2.46875 3.375 -1.78125 Z M 3.375 -1.78125 "/>
</g>
<g id="glyph-5-0">
<path d="M 2.90625 1.890625 C 2.90625 1.859375 2.90625 1.84375 2.8125 1.734375 C 2.3125 1.125 1.765625 0.15625 1.765625 -1.984375 C 1.765625 -4.328125 2.421875 -5.25 2.859375 -5.78125 C 2.890625 -5.8125 2.90625 -5.828125 2.90625 -5.859375 C 2.90625 -5.96875 2.828125 -5.96875 2.703125 -5.96875 L 2.546875 -5.96875 C 2.40625 -5.96875 2.390625 -5.96875 2.25 -5.84375 C 1.296875 -5.03125 0.6875 -3.671875 0.6875 -1.984375 C 0.6875 -1.03125 0.875 0.640625 2.21875 1.84375 C 2.375 1.984375 2.390625 1.984375 2.546875 1.984375 L 2.703125 1.984375 C 2.828125 1.984375 2.90625 1.984375 2.90625 1.890625 Z M 2.90625 1.890625 "/>
</g>
<g id="glyph-5-1">
<path d="M 3.765625 -0.28125 C 3.765625 -0.578125 3.46875 -0.578125 3.375 -0.578125 L 2.828125 -0.578125 L 2.828125 -5.3125 C 2.828125 -5.46875 2.828125 -5.6875 2.46875 -5.6875 C 2.3125 -5.6875 2.28125 -5.671875 2.1875 -5.578125 C 2.046875 -5.453125 1.734375 -5.15625 0.953125 -5.140625 C 0.8125 -5.140625 0.609375 -5.09375 0.609375 -4.859375 C 0.609375 -4.578125 0.875 -4.578125 0.984375 -4.578125 C 1.21875 -4.578125 1.5 -4.609375 1.734375 -4.671875 L 1.734375 -0.578125 L 1.109375 -0.578125 C 1.015625 -0.578125 0.734375 -0.578125 0.734375 -0.28125 C 0.734375 0 1.015625 0 1.109375 0 L 3.375 0 C 3.46875 0 3.765625 0 3.765625 -0.28125 Z M 3.765625 -0.28125 "/>
</g>
<g id="glyph-5-2">
<path d="M 2.71875 -1.984375 C 2.71875 -2.953125 2.515625 -4.609375 1.1875 -5.8125 C 1.015625 -5.96875 1 -5.96875 0.84375 -5.96875 L 0.703125 -5.96875 C 0.578125 -5.96875 0.484375 -5.96875 0.484375 -5.859375 C 0.484375 -5.84375 0.484375 -5.828125 0.578125 -5.71875 C 1.078125 -5.109375 1.625 -4.125 1.625 -1.984375 C 1.625 0.34375 0.96875 1.265625 0.53125 1.796875 C 0.484375 1.859375 0.484375 1.890625 0.484375 1.890625 C 0.484375 1.984375 0.578125 1.984375 0.703125 1.984375 L 0.84375 1.984375 C 0.984375 1.984375 1 1.984375 1.140625 1.859375 C 2.09375 1.0625 2.71875 -0.296875 2.71875 -1.984375 Z M 2.71875 -1.984375 "/>
</g>
<g id="glyph-5-3">
<path d="M 3.921875 -0.375 L 3.921875 -0.484375 C 3.921875 -0.609375 3.921875 -0.75 3.765625 -0.828125 C 3.703125 -0.859375 3.453125 -0.859375 3.296875 -0.859375 L 2.75 -0.84375 L 1.46875 -0.84375 L 2.515625 -1.84375 C 2.625 -1.953125 2.9375 -2.1875 3.046875 -2.3125 C 3.484375 -2.734375 3.921875 -3.15625 3.921875 -3.859375 C 3.921875 -4.828125 3.234375 -5.6875 2.0625 -5.6875 C 1.78125 -5.6875 1.328125 -5.65625 0.953125 -5.34375 C 0.875 -5.28125 0.515625 -5 0.359375 -4.46875 L 0.765625 -3.953125 C 0.8125 -3.890625 0.828125 -3.859375 0.890625 -3.859375 C 0.96875 -3.859375 0.984375 -3.921875 1 -4.015625 C 1.15625 -4.5625 1.4375 -4.90625 1.9375 -4.90625 C 2.5625 -4.90625 2.8125 -4.328125 2.8125 -3.84375 C 2.8125 -3.34375 2.515625 -2.8125 2.03125 -2.296875 L 0.515625 -0.671875 C 0.4375 -0.59375 0.4375 -0.578125 0.4375 -0.453125 L 0.4375 -0.375 C 0.4375 -0.09375 0.53125 0 0.8125 0 L 3.546875 0 C 3.84375 0 3.921875 -0.109375 3.921875 -0.375 Z M 3.921875 -0.375 "/>
</g>
<g id="glyph-6-0">
<path d="M 3.828125 -0.40625 L 3.828125 -0.5625 C 3.828125 -0.609375 3.78125 -0.65625 3.703125 -0.65625 C 3.09375 -0.53125 2.546875 -0.171875 2.203125 0.34375 L 2.203125 -4.65625 C 2.203125 -4.765625 2.109375 -4.828125 2.015625 -4.828125 C 1.9375 -4.828125 1.859375 -4.765625 1.859375 -4.65625 L 1.859375 0.34375 C 1.5 -0.171875 0.953125 -0.53125 0.34375 -0.65625 C 0.265625 -0.65625 0.234375 -0.609375 0.234375 -0.5625 L 0.234375 -0.40625 C 0.234375 -0.359375 0.25 -0.328125 0.3125 -0.3125 C 1.109375 -0.15625 1.75 0.46875 1.9375 1.28125 C 1.9375 1.328125 1.984375 1.34375 2.015625 1.34375 C 2.078125 1.34375 2.109375 1.328125 2.125 1.28125 C 2.296875 0.46875 2.9375 -0.15625 3.75 -0.3125 C 3.796875 -0.328125 3.828125 -0.359375 3.828125 -0.40625 Z M 3.828125 -0.40625 "/>
</g>
<g id="glyph-6-1">
<path d="M 3.828125 -2.921875 L 3.828125 -3.0625 C 3.828125 -3.109375 3.796875 -3.15625 3.75 -3.15625 C 2.9375 -3.328125 2.296875 -3.953125 2.125 -4.75 C 2.109375 -4.796875 2.078125 -4.828125 2.015625 -4.828125 C 1.984375 -4.828125 1.9375 -4.796875 1.9375 -4.75 C 1.75 -3.953125 1.109375 -3.328125 0.3125 -3.15625 C 0.25 -3.15625 0.234375 -3.109375 0.234375 -3.0625 L 0.234375 -2.921875 C 0.234375 -2.859375 0.265625 -2.828125 0.34375 -2.828125 C 0.953125 -2.953125 1.5 -3.3125 1.859375 -3.8125 L 1.859375 1.1875 C 1.859375 1.296875 1.9375 1.34375 2.015625 1.34375 C 2.109375 1.34375 2.203125 1.296875 2.203125 1.1875 L 2.203125 -3.8125 C 2.546875 -3.3125 3.09375 -2.953125 3.703125 -2.828125 C 3.78125 -2.828125 3.828125 -2.859375 3.828125 -2.921875 Z M 3.828125 -2.921875 "/>
</g>
</g>
</defs>
<path fill-rule="nonzero" fill="rgb(96.076965%, 96.076965%, 96.076965%)" fill-opacity="1" stroke-width="0.3985" stroke-linecap="butt" stroke-linejoin="miter" stroke="rgb(72.549438%, 72.549438%, 72.549438%)" stroke-opacity="1" stroke-miterlimit="10" d="M -0.000952066 78.029307 L -0.000952066 89.21453 C -0.000952066 90.0406 0.668517 90.710069 1.494587 90.710069 L 43.859058 90.710069 C 44.685128 90.710069 45.354597 90.0406 45.354597 89.21453 L 45.354597 78.029307 C 45.354597 77.207152 44.685128 76.537683 43.859058 76.537683 L 1.494587 76.537683 C 0.668517 76.537683 -0.000952066 77.207152 -0.000952066 78.029307 Z M -0.000952066 78.029307 " transform="matrix(0.997759, 0, 0, -0.997759, 10.387669, 122.143504)"/>
<g fill="rgb(0%, 0%, 0%)" fill-opacity="1">
<use xlink:href="#glyph-0-0" x="31.165999" y="40.991776"/>
</g>
<path fill-rule="nonzero" fill="rgb(99.607849%, 88.627625%, 88.627625%)" fill-opacity="1" stroke-width="0.89664" stroke-linecap="butt" stroke-linejoin="miter" stroke="rgb(93.725586%, 26.667786%, 26.667786%)" stroke-opacity="1" stroke-miterlimit="10" d="M -0.000952066 61.022444 L -0.000952066 72.207667 C -0.000952066 73.033737 0.668517 73.703206 1.494587 73.703206 L 43.859058 73.703206 C 44.685128 73.703206 45.354597 73.033737 45.354597 72.207667 L 45.354597 61.022444 C 45.354597 60.196374 44.685128 59.526905 43.859058 59.526905 L 1.494587 59.526905 C 0.668517 59.526905 -0.000952066 60.196374 -0.000952066 61.022444 Z M -0.000952066 61.022444 " transform="matrix(0.997759, 0, 0, -0.997759, 10.387669, 122.143504)"/>
<g fill="rgb(70.292664%, 19.999695%, 19.999695%)" fill-opacity="1">
<use xlink:href="#glyph-1-0" x="30.569339" y="58.094362"/>
</g>
<path fill-rule="nonzero" fill="rgb(96.076965%, 96.076965%, 96.076965%)" fill-opacity="1" stroke-width="0.3985" stroke-linecap="butt" stroke-linejoin="miter" stroke="rgb(72.549438%, 72.549438%, 72.549438%)" stroke-opacity="1" stroke-miterlimit="10" d="M -0.000952066 44.015582 L -0.000952066 55.200804 C -0.000952066 56.022959 0.668517 56.692428 1.494587 56.692428 L 43.859058 56.692428 C 44.685128 56.692428 45.354597 56.022959 45.354597 55.200804 L 45.354597 44.015582 C 45.354597 43.189512 44.685128 42.520043 43.859058 42.520043 L 1.494587 42.520043 C 0.668517 42.520043 -0.000952066 43.189512 -0.000952066 44.015582 Z M -0.000952066 44.015582 " transform="matrix(0.997759, 0, 0, -0.997759, 10.387669, 122.143504)"/>
<g fill="rgb(0%, 0%, 0%)" fill-opacity="1">
<use xlink:href="#glyph-0-1" x="31.165999" y="74.931545"/>
</g>
<path fill-rule="nonzero" fill="rgb(96.076965%, 96.076965%, 96.076965%)" fill-opacity="1" stroke-width="0.3985" stroke-linecap="butt" stroke-linejoin="miter" stroke="rgb(72.549438%, 72.549438%, 72.549438%)" stroke-opacity="1" stroke-miterlimit="10" d="M -0.000952066 27.004804 L -0.000952066 38.190026 C -0.000952066 39.016096 0.668517 39.685565 1.494587 39.685565 L 43.859058 39.685565 C 44.685128 39.685565 45.354597 39.016096 45.354597 38.190026 L 45.354597 27.004804 C 45.354597 26.182649 44.685128 25.51318 43.859058 25.51318 L 1.494587 25.51318 C 0.668517 25.51318 -0.000952066 26.182649 -0.000952066 27.004804 Z M -0.000952066 27.004804 " transform="matrix(0.997759, 0, 0, -0.997759, 10.387669, 122.143504)"/>
<g fill="rgb(0%, 0%, 0%)" fill-opacity="1">
<use xlink:href="#glyph-0-2" x="31.165999" y="91.90143"/>
</g>
<path fill-rule="nonzero" fill="rgb(94.352722%, 96.705627%, 99.842834%)" fill-opacity="1" stroke-width="0.3985" stroke-linecap="butt" stroke-linejoin="miter" stroke="rgb(62.588501%, 78.823853%, 98.823547%)" stroke-opacity="1" stroke-miterlimit="10" d="M 59.526983 78.029307 L 59.526983 89.21453 C 59.526983 90.0406 60.196452 90.710069 61.022522 90.710069 L 103.386993 90.710069 C 104.213063 90.710069 104.882532 90.0406 104.882532 89.21453 L 104.882532 78.029307 C 104.882532 77.207152 104.213063 76.537683 103.386993 76.537683 L 61.022522 76.537683 C 60.196452 76.537683 59.526983 77.207152 59.526983 78.029307 Z M 59.526983 78.029307 " transform="matrix(0.997759, 0, 0, -0.997759, 10.387669, 122.143504)"/>
<g fill="rgb(0%, 0%, 0%)" fill-opacity="1">
<use xlink:href="#glyph-0-0" x="90.559598" y="40.991776"/>
</g>
<path fill-rule="nonzero" fill="rgb(94.352722%, 96.705627%, 99.842834%)" fill-opacity="1" stroke-width="0.3985" stroke-linecap="butt" stroke-linejoin="miter" stroke="rgb(62.588501%, 78.823853%, 98.823547%)" stroke-opacity="1" stroke-miterlimit="10" d="M 59.526983 61.022444 L 59.526983 72.207667 C 59.526983 73.033737 60.196452 73.703206 61.022522 73.703206 L 103.386993 73.703206 C 104.213063 73.703206 104.882532 73.033737 104.882532 72.207667 L 104.882532 61.022444 C 104.882532 60.196374 104.213063 59.526905 103.386993 59.526905 L 61.022522 59.526905 C 60.196452 59.526905 59.526983 60.196374 59.526983 61.022444 Z M 59.526983 61.022444 " transform="matrix(0.997759, 0, 0, -0.997759, 10.387669, 122.143504)"/>
<g fill="rgb(0%, 0%, 0%)" fill-opacity="1">
<use xlink:href="#glyph-0-1" x="90.559598" y="57.96166"/>
</g>
<path fill-rule="nonzero" fill="rgb(99.607849%, 88.627625%, 88.627625%)" fill-opacity="1" stroke-width="0.89664" stroke-linecap="butt" stroke-linejoin="miter" stroke="rgb(93.725586%, 26.667786%, 26.667786%)" stroke-opacity="1" stroke-miterlimit="10" d="M 59.526983 44.015582 L 59.526983 55.200804 C 59.526983 56.022959 60.196452 56.692428 61.022522 56.692428 L 103.386993 56.692428 C 104.213063 56.692428 104.882532 56.022959 104.882532 55.200804 L 104.882532 44.015582 C 104.882532 43.189512 104.213063 42.520043 103.386993 42.520043 L 61.022522 42.520043 C 60.196452 42.520043 59.526983 43.189512 59.526983 44.015582 Z M 59.526983 44.015582 " transform="matrix(0.997759, 0, 0, -0.997759, 10.387669, 122.143504)"/>
<g fill="rgb(70.292664%, 19.999695%, 19.999695%)" fill-opacity="1">
<use xlink:href="#glyph-1-0" x="89.962938" y="75.064247"/>
</g>
<g fill="rgb(74.978638%, 21.334839%, 21.334839%)" fill-opacity="1">
<use xlink:href="#glyph-2-0" x="101.576852" y="73.890882"/>
</g>
<g fill="rgb(74.978638%, 21.334839%, 21.334839%)" fill-opacity="1">
<use xlink:href="#glyph-3-0" x="105.235635" y="73.890882"/>
</g>
<path fill-rule="nonzero" fill="rgb(94.352722%, 96.705627%, 99.842834%)" fill-opacity="1" stroke-width="0.3985" stroke-linecap="butt" stroke-linejoin="miter" stroke="rgb(62.588501%, 78.823853%, 98.823547%)" stroke-opacity="1" stroke-miterlimit="10" d="M 59.526983 27.004804 L 59.526983 38.190026 C 59.526983 39.016096 60.196452 39.685565 61.022522 39.685565 L 103.386993 39.685565 C 104.213063 39.685565 104.882532 39.016096 104.882532 38.190026 L 104.882532 27.004804 C 104.882532 26.182649 104.213063 25.51318 103.386993 25.51318 L 61.022522 25.51318 C 60.196452 25.51318 59.526983 26.182649 59.526983 27.004804 Z M 59.526983 27.004804 " transform="matrix(0.997759, 0, 0, -0.997759, 10.387669, 122.143504)"/>
<g fill="rgb(0%, 0%, 0%)" fill-opacity="1">
<use xlink:href="#glyph-0-2" x="90.559598" y="91.90143"/>
</g>
<path fill-rule="nonzero" fill="rgb(99.607849%, 88.627625%, 88.627625%)" fill-opacity="1" stroke-width="0.89664" stroke-linecap="butt" stroke-linejoin="miter" stroke="rgb(93.725586%, 26.667786%, 26.667786%)" stroke-opacity="1" stroke-miterlimit="10" d="M 119.054918 78.029307 L 119.054918 89.21453 C 119.054918 90.0406 119.724387 90.710069 120.550457 90.710069 L 162.918843 90.710069 C 163.740998 90.710069 164.410467 90.0406 164.410467 89.21453 L 164.410467 78.029307 C 164.410467 77.207152 163.740998 76.537683 162.918843 76.537683 L 120.550457 76.537683 C 119.724387 76.537683 119.054918 77.207152 119.054918 78.029307 Z M 119.054918 78.029307 " transform="matrix(0.997759, 0, 0, -0.997759, 10.387669, 122.143504)"/>
<g fill="rgb(70.292664%, 19.999695%, 19.999695%)" fill-opacity="1">
<use xlink:href="#glyph-1-0" x="149.357534" y="41.124478"/>
</g>
<g fill="rgb(74.978638%, 21.334839%, 21.334839%)" fill-opacity="1">
<use xlink:href="#glyph-2-1" x="160.970451" y="39.951113"/>
</g>
<g fill="rgb(74.978638%, 21.334839%, 21.334839%)" fill-opacity="1">
<use xlink:href="#glyph-3-0" x="164.629233" y="39.951113"/>
</g>
<path fill-rule="nonzero" fill="rgb(99.842834%, 98.11554%, 91.215515%)" fill-opacity="1" stroke-width="0.3985" stroke-linecap="butt" stroke-linejoin="miter" stroke="rgb(99.058533%, 84.939575%, 48.469543%)" stroke-opacity="1" stroke-miterlimit="10" d="M 119.054918 61.022444 L 119.054918 72.207667 C 119.054918 73.033737 119.724387 73.703206 120.550457 73.703206 L 162.918843 73.703206 C 163.740998 73.703206 164.410467 73.033737 164.410467 72.207667 L 164.410467 61.022444 C 164.410467 60.196374 163.740998 59.526905 162.918843 59.526905 L 120.550457 59.526905 C 119.724387 59.526905 119.054918 60.196374 119.054918 61.022444 Z M 119.054918 61.022444 " transform="matrix(0.997759, 0, 0, -0.997759, 10.387669, 122.143504)"/>
<g fill="rgb(0%, 0%, 0%)" fill-opacity="1">
<use xlink:href="#glyph-0-0" x="149.954194" y="57.96166"/>
</g>
<path fill-rule="nonzero" fill="rgb(99.842834%, 98.11554%, 91.215515%)" fill-opacity="1" stroke-width="0.3985" stroke-linecap="butt" stroke-linejoin="miter" stroke="rgb(99.058533%, 84.939575%, 48.469543%)" stroke-opacity="1" stroke-miterlimit="10" d="M 119.054918 44.015582 L 119.054918 55.200804 C 119.054918 56.022959 119.724387 56.692428 120.550457 56.692428 L 162.918843 56.692428 C 163.740998 56.692428 164.410467 56.022959 164.410467 55.200804 L 164.410467 44.015582 C 164.410467 43.189512 163.740998 42.520043 162.918843 42.520043 L 120.550457 42.520043 C 119.724387 42.520043 119.054918 43.189512 119.054918 44.015582 Z M 119.054918 44.015582 " transform="matrix(0.997759, 0, 0, -0.997759, 10.387669, 122.143504)"/>
<g fill="rgb(0%, 0%, 0%)" fill-opacity="1">
<use xlink:href="#glyph-0-1" x="149.954194" y="74.931545"/>
</g>
<path fill-rule="nonzero" fill="rgb(99.842834%, 98.11554%, 91.215515%)" fill-opacity="1" stroke-width="0.3985" stroke-linecap="butt" stroke-linejoin="miter" stroke="rgb(99.058533%, 84.939575%, 48.469543%)" stroke-opacity="1" stroke-miterlimit="10" d="M 119.054918 27.004804 L 119.054918 38.190026 C 119.054918 39.016096 119.724387 39.685565 120.550457 39.685565 L 162.918843 39.685565 C 163.740998 39.685565 164.410467 39.016096 164.410467 38.190026 L 164.410467 27.004804 C 164.410467 26.182649 163.740998 25.51318 162.918843 25.51318 L 120.550457 25.51318 C 119.724387 25.51318 119.054918 26.182649 119.054918 27.004804 Z M 119.054918 27.004804 " transform="matrix(0.997759, 0, 0, -0.997759, 10.387669, 122.143504)"/>
<g fill="rgb(0%, 0%, 0%)" fill-opacity="1">
<use xlink:href="#glyph-0-2" x="149.954194" y="91.90143"/>
</g>
<g fill="rgb(0%, 0%, 0%)" fill-opacity="1">
<use xlink:href="#glyph-4-0" x="24.670588" y="107.934418"/>
<use xlink:href="#glyph-4-1" x="30.303954" y="107.934418"/>
<use xlink:href="#glyph-4-2" x="34.362777" y="107.934418"/>
<use xlink:href="#glyph-4-3" x="37.601724" y="107.934418"/>
</g>
<g fill="rgb(31.997681%, 54.998779%, 83.332825%)" fill-opacity="1">
<use xlink:href="#glyph-4-4" x="79.057432" y="107.934418"/>
<use xlink:href="#glyph-4-5" x="84.455412" y="107.934418"/>
<use xlink:href="#glyph-4-6" x="88.81801" y="107.934418"/>
<use xlink:href="#glyph-4-6" x="91.703878" y="107.934418"/>
<use xlink:href="#glyph-4-3" x="94.589745" y="107.934418"/>
<use xlink:href="#glyph-4-7" x="98.345588" y="107.934418"/>
<use xlink:href="#glyph-4-8" x="102.708186" y="107.934418"/>
</g>
<g fill="rgb(83.666992%, 63.665771%, 11.999512%)" fill-opacity="1">
<use xlink:href="#glyph-4-9" x="135.800983" y="107.161155"/>
<use xlink:href="#glyph-4-7" x="138.147689" y="107.161155"/>
<use xlink:href="#glyph-4-10" x="142.510287" y="107.161155"/>
<use xlink:href="#glyph-4-11" x="146.266129" y="107.161155"/>
<use xlink:href="#glyph-4-12" x="150.491154" y="107.161155"/>
<use xlink:href="#glyph-4-13" x="157.201253" y="107.161155"/>
<use xlink:href="#glyph-4-7" x="159.217145" y="107.161155"/>
<use xlink:href="#glyph-4-14" x="163.579744" y="107.161155"/>
</g>
<path fill="none" stroke-width="0.79701" stroke-linecap="butt" stroke-linejoin="miter" stroke="rgb(65.606689%, 18.667603%, 18.667603%)" stroke-opacity="1" stroke-miterlimit="10" d="M 45.354597 66.617013 C 48.28695 58.473764 52.049288 53.959742 55.976056 51.673368 " transform="matrix(0.997759, 0, 0, -0.997759, 10.387669, 122.143504)"/>
<path fill-rule="nonzero" fill="rgb(65.606689%, 18.667603%, 18.667603%)" fill-opacity="1" stroke-width="0.79701" stroke-linecap="butt" stroke-linejoin="miter" stroke="rgb(65.606689%, 18.667603%, 18.667603%)" stroke-opacity="1" stroke-miterlimit="10" d="M 5.440997 0.000452138 L 1.288654 1.570488 L 2.663646 0.00150028 L 1.286084 -1.57013 Z M 5.440997 0.000452138 " transform="matrix(0.862353, 0.501783, 0.501783, -0.862353, 64.1124, 69.348315)"/>
<path fill="none" stroke-width="0.79701" stroke-linecap="butt" stroke-linejoin="miter" stroke="rgb(65.606689%, 18.667603%, 18.667603%)" stroke-opacity="1" stroke-miterlimit="10" d="M 45.354597 66.617013 C 70.868806 111.968647 85.041192 111.968647 115.899409 86.254772 " transform="matrix(0.997759, 0, 0, -0.997759, 10.387669, 122.143504)"/>
<path fill-rule="nonzero" fill="rgb(65.606689%, 18.667603%, 18.667603%)" fill-opacity="1" stroke-width="0.79701" stroke-linecap="butt" stroke-linejoin="miter" stroke="rgb(65.606689%, 18.667603%, 18.667603%)" stroke-opacity="1" stroke-miterlimit="10" d="M 5.442225 -0.000344095 L 1.287539 1.572732 L 2.665075 -0.000827606 L 1.28802 -1.571362 Z M 5.442225 -0.000344095 " transform="matrix(0.766468, 0.638715, 0.638715, -0.766468, 124.13752, 34.508078)"/>
<g fill="rgb(0%, 0%, 0%)" fill-opacity="1">
<use xlink:href="#glyph-5-0" x="62.554499" y="118.420865"/>
<use xlink:href="#glyph-5-1" x="65.956467" y="118.420865"/>
<use xlink:href="#glyph-5-2" x="70.330198" y="118.420865"/>
</g>
<g fill="rgb(0%, 0%, 0%)" fill-opacity="1">
<use xlink:href="#glyph-4-15" x="76.549066" y="118.420865"/>
</g>
<g fill="rgb(0%, 0%, 0%)" fill-opacity="1">
<use xlink:href="#glyph-4-3" x="81.142279" y="118.420865"/>
</g>
<g fill="rgb(0%, 0%, 0%)" fill-opacity="1">
<use xlink:href="#glyph-4-16" x="84.906074" y="118.420865"/>
</g>
<g fill="rgb(0%, 0%, 0%)" fill-opacity="1">
<use xlink:href="#glyph-4-11" x="87.480214" y="118.420865"/>
</g>
<g fill="rgb(0%, 0%, 0%)" fill-opacity="1">
<use xlink:href="#glyph-4-6" x="91.474623" y="118.420865"/>
<use xlink:href="#glyph-4-3" x="94.360491" y="118.420865"/>
</g>
<g fill="rgb(0%, 0%, 0%)" fill-opacity="1">
<use xlink:href="#glyph-4-12" x="100.931426" y="118.420865"/>
<use xlink:href="#glyph-4-3" x="107.641525" y="118.420865"/>
<use xlink:href="#glyph-4-6" x="111.397367" y="118.420865"/>
<use xlink:href="#glyph-4-14" x="114.283235" y="118.420865"/>
<use xlink:href="#glyph-4-3" x="118.508259" y="118.420865"/>
</g>
<path fill-rule="nonzero" fill="rgb(96.076965%, 96.076965%, 96.076965%)" fill-opacity="1" stroke-width="0.3985" stroke-linecap="butt" stroke-linejoin="miter" stroke="rgb(72.549438%, 72.549438%, 72.549438%)" stroke-opacity="1" stroke-miterlimit="10" d="M 198.428108 99.291801 L 198.428108 107.642546 C 198.428108 108.464701 199.097577 109.13417 199.923647 109.13417 L 350.006079 109.13417 C 350.832149 109.13417 351.501618 108.464701 351.501618 107.642546 L 351.501618 99.291801 C 351.501618 98.465731 350.832149 97.796262 350.006079 97.796262 L 199.923647 97.796262 C 199.097577 97.796262 198.428108 98.465731 198.428108 99.291801 Z M 198.428108 99.291801 " transform="matrix(0.997759, 0, 0, -0.997759, 10.387669, 122.143504)"/>
<g fill="rgb(0%, 0%, 0%)" fill-opacity="1">
<use xlink:href="#glyph-0-0" x="282.883627" y="21.194242"/>
</g>
<path fill-rule="nonzero" fill="rgb(99.822998%, 94.880676%, 94.880676%)" fill-opacity="1" stroke-width="0.49814" stroke-linecap="butt" stroke-linejoin="miter" stroke="rgb(97.489929%, 70.666504%, 70.666504%)" stroke-opacity="1" stroke-miterlimit="10" d="M 181.421245 34.094912 L 181.421245 93.466246 C 181.421245 94.292316 182.086799 94.961785 182.912869 94.961785 L 367.012942 94.961785 C 367.839012 94.961785 368.508481 94.292316 368.508481 93.466246 L 368.508481 34.094912 C 368.508481 33.268842 367.839012 32.599373 367.012942 32.599373 L 182.912869 32.599373 C 182.086799 32.599373 181.421245 33.268842 181.421245 34.094912 Z M 181.421245 34.094912 " transform="matrix(0.997759, 0, 0, -0.997759, 10.387669, 122.143504)"/>
<path fill-rule="nonzero" fill="rgb(85.882568%, 91.764832%, 99.607849%)" fill-opacity="1" stroke-width="0.3985" stroke-linecap="butt" stroke-linejoin="miter" stroke="rgb(37.644958%, 64.704895%, 98.039246%)" stroke-opacity="1" stroke-miterlimit="10" d="M 189.924676 87.386214 L 189.924676 91.199447 C 189.924676 92.025517 190.594145 92.694986 191.4163 92.694986 L 204.018761 92.694986 C 204.844831 92.694986 205.5143 92.025517 205.5143 91.199447 L 205.5143 87.386214 C 205.5143 86.560144 204.844831 85.890675 204.018761 85.890675 L 191.4163 85.890675 C 190.594145 85.890675 189.924676 86.560144 189.924676 87.386214 Z M 189.924676 87.386214 " transform="matrix(0.997759, 0, 0, -0.997759, 10.387669, 122.143504)"/>
<g fill="rgb(33.880615%, 58.233643%, 88.233948%)" fill-opacity="1">
<use xlink:href="#glyph-6-0" x="203.160689" y="34.791701"/>
</g>
<g fill="rgb(33.880615%, 58.233643%, 88.233948%)" fill-opacity="1">
<use xlink:href="#glyph-0-0" x="208.465774" y="34.791701"/>
</g>
<path fill-rule="nonzero" fill="rgb(99.607849%, 95.292664%, 78.039551%)" fill-opacity="1" stroke-width="0.3985" stroke-linecap="butt" stroke-linejoin="miter" stroke="rgb(98.429871%, 74.900818%, 14.118958%)" stroke-opacity="1" stroke-miterlimit="10" d="M 208.348778 87.386214 L 208.348778 91.199447 C 208.348778 92.025517 209.018247 92.694986 209.844317 92.694986 L 222.446778 92.694986 C 223.268933 92.694986 223.938402 92.025517 223.938402 91.199447 L 223.938402 87.386214 C 223.938402 86.560144 223.268933 85.890675 222.446778 85.890675 L 209.844317 85.890675 C 209.018247 85.890675 208.348778 86.560144 208.348778 87.386214 Z M 208.348778 87.386214 " transform="matrix(0.997759, 0, 0, -0.997759, 10.387669, 122.143504)"/>
<g fill="rgb(88.587952%, 67.411804%, 12.70752%)" fill-opacity="1">
<use xlink:href="#glyph-6-1" x="221.544398" y="34.791701"/>
</g>
<g fill="rgb(88.587952%, 67.411804%, 12.70752%)" fill-opacity="1">
<use xlink:href="#glyph-0-0" x="226.849483" y="34.791701"/>
</g>
<path fill-rule="nonzero" fill="rgb(100%, 100%, 100%)" fill-opacity="1" stroke-width="0.3985" stroke-linecap="butt" stroke-linejoin="miter" stroke="rgb(72.549438%, 72.549438%, 72.549438%)" stroke-opacity="1" stroke-miterlimit="10" d="M 330.239124 87.100417 L 330.239124 91.481329 C 330.239124 92.307399 330.908593 92.976868 331.734663 92.976868 L 358.50951 92.976868 C 359.33558 92.976868 360.005049 92.307399 360.005049 91.481329 L 360.005049 87.100417 C 360.005049 86.278262 359.33558 85.608793 358.50951 85.608793 L 331.734663 85.608793 C 330.908593 85.608793 330.239124 86.278262 330.239124 87.100417 Z M 330.239124 87.100417 " transform="matrix(0.997759, 0, 0, -0.997759, 10.387669, 122.143504)"/>
<g fill="rgb(0%, 0%, 0%)" fill-opacity="1">
<use xlink:href="#glyph-3-1" x="344.700782" y="34.777733"/>
<use xlink:href="#glyph-3-2" x="348.325005" y="34.777733"/>
<use xlink:href="#glyph-3-3" x="351.051622" y="34.777733"/>
<use xlink:href="#glyph-3-4" x="355.245424" y="34.777733"/>
<use xlink:href="#glyph-3-5" x="357.782182" y="34.777733"/>
<use xlink:href="#glyph-3-6" x="359.689223" y="34.777733"/>
<use xlink:href="#glyph-3-7" x="362.036619" y="34.777733"/>
</g>
<path fill-rule="nonzero" fill="rgb(93.647766%, 96.29364%, 99.822998%)" fill-opacity="1" stroke-width="0.3985" stroke-linecap="butt" stroke-linejoin="miter" stroke="rgb(37.644958%, 64.704895%, 98.039246%)" stroke-opacity="1" stroke-miterlimit="10" d="M 187.090199 46.850059 L 187.090199 77.876621 C 187.090199 78.702691 187.759668 79.37216 188.581823 79.37216 L 269.219566 79.37216 C 270.04172 79.37216 270.71119 78.702691 270.71119 77.876621 L 270.71119 46.850059 C 270.71119 46.023989 270.04172 45.35452 269.219566 45.35452 L 188.581823 45.35452 C 187.759668 45.35452 187.090199 46.023989 187.090199 46.850059 Z M 187.090199 46.850059 " transform="matrix(0.997759, 0, 0, -0.997759, 10.387669, 122.143504)"/>
<path fill-rule="nonzero" fill="rgb(99.822998%, 97.880554%, 90.116882%)" fill-opacity="1" stroke-width="0.3985" stroke-linecap="butt" stroke-linejoin="miter" stroke="rgb(98.429871%, 74.900818%, 14.118958%)" stroke-opacity="1" stroke-miterlimit="10" d="M 273.545667 46.850059 L 273.545667 77.876621 C 273.545667 78.702691 274.215136 79.37216 275.041206 79.37216 L 361.343987 79.37216 C 362.170057 79.37216 362.839527 78.702691 362.839527 77.876621 L 362.839527 46.850059 C 362.839527 46.023989 362.170057 45.35452 361.343987 45.35452 L 275.041206 45.35452 C 274.215136 45.35452 273.545667 46.023989 273.545667 46.850059 Z M 273.545667 46.850059 " transform="matrix(0.997759, 0, 0, -0.997759, 10.387669, 122.143504)"/>
<path fill="none" stroke-width="0.54794" stroke-linecap="butt" stroke-linejoin="miter" stroke="rgb(72.549438%, 72.549438%, 72.549438%)" stroke-opacity="1" stroke-miterlimit="10" d="M 191.341915 72.285968 L 265.042235 72.285968 " transform="matrix(0.997759, 0, 0, -0.997759, 10.387669, 122.143504)"/>
<path fill="none" stroke-width="0.54794" stroke-linecap="butt" stroke-linejoin="miter" stroke="rgb(72.549438%, 72.549438%, 72.549438%)" stroke-opacity="1" stroke-miterlimit="10" d="M 191.341915 63.778621 L 243.783657 63.778621 " transform="matrix(0.997759, 0, 0, -0.997759, 10.387669, 122.143504)"/>
<path fill="none" stroke-width="0.54794" stroke-linecap="butt" stroke-linejoin="miter" stroke="rgb(96.862793%, 63.334656%, 63.334656%)" stroke-opacity="1" stroke-miterlimit="10" d="M 191.341915 55.27519 L 257.956042 55.27519 " transform="matrix(0.997759, 0, 0, -0.997759, 10.387669, 122.143504)"/>
<path fill="none" stroke-width="0.54794" stroke-linecap="butt" stroke-linejoin="miter" stroke="rgb(72.549438%, 72.549438%, 72.549438%)" stroke-opacity="1" stroke-miterlimit="10" d="M 191.341915 48.188997 L 232.441833 48.188997 " transform="matrix(0.997759, 0, 0, -0.997759, 10.387669, 122.143504)"/>
<path fill="none" stroke-width="0.54794" stroke-linecap="butt" stroke-linejoin="miter" stroke="rgb(72.549438%, 72.549438%, 72.549438%)" stroke-opacity="1" stroke-miterlimit="10" d="M 277.797382 72.285968 L 358.587811 72.285968 " transform="matrix(0.997759, 0, 0, -0.997759, 10.387669, 122.143504)"/>
<path fill="none" stroke-width="0.54794" stroke-linecap="butt" stroke-linejoin="miter" stroke="rgb(72.549438%, 72.549438%, 72.549438%)" stroke-opacity="1" stroke-miterlimit="10" d="M 277.797382 63.778621 L 323.152932 63.778621 " transform="matrix(0.997759, 0, 0, -0.997759, 10.387669, 122.143504)"/>
<path fill="none" stroke-width="0.54794" stroke-linecap="butt" stroke-linejoin="miter" stroke="rgb(96.862793%, 63.334656%, 63.334656%)" stroke-opacity="1" stroke-miterlimit="10" d="M 277.797382 55.27519 L 351.501618 55.27519 " transform="matrix(0.997759, 0, 0, -0.997759, 10.387669, 122.143504)"/>
<path fill="none" stroke-width="0.54794" stroke-linecap="butt" stroke-linejoin="miter" stroke="rgb(72.549438%, 72.549438%, 72.549438%)" stroke-opacity="1" stroke-miterlimit="10" d="M 277.797382 48.188997 L 311.815023 48.188997 " transform="matrix(0.997759, 0, 0, -0.997759, 10.387669, 122.143504)"/>
<path fill-rule="nonzero" fill="rgb(85.882568%, 91.764832%, 99.607849%)" fill-opacity="1" stroke-width="0.3985" stroke-linecap="butt" stroke-linejoin="miter" stroke="rgb(37.644958%, 64.704895%, 98.039246%)" stroke-opacity="1" stroke-miterlimit="10" d="M 189.924676 35.51215 L 189.924676 41.024504 C 189.924676 41.850574 190.594145 42.520043 191.4163 42.520043 L 266.381173 42.520043 C 267.207243 42.520043 267.876712 41.850574 267.876712 41.024504 L 267.876712 35.51215 C 267.876712 34.68608 267.207243 34.016611 266.381173 34.016611 L 191.4163 34.016611 C 190.594145 34.016611 189.924676 34.68608 189.924676 35.51215 Z M 189.924676 35.51215 " transform="matrix(0.997759, 0, 0, -0.997759, 10.387669, 122.143504)"/>
<g fill="rgb(33.880615%, 58.233643%, 88.233948%)" fill-opacity="1">
<use xlink:href="#glyph-0-3" x="220.26128" y="86.376838"/>
<use xlink:href="#glyph-0-4" x="225.335179" y="86.376838"/>
<use xlink:href="#glyph-0-5" x="228.169242" y="86.376838"/>
</g>
<g fill="rgb(33.880615%, 58.233643%, 88.233948%)" fill-opacity="1">
<use xlink:href="#glyph-0-6" x="233.918779" y="86.376838"/>
<use xlink:href="#glyph-0-7" x="238.641986" y="86.376838"/>
<use xlink:href="#glyph-0-8" x="242.459239" y="86.376838"/>
<use xlink:href="#glyph-0-8" x="244.984359" y="86.376838"/>
<use xlink:href="#glyph-0-5" x="247.50948" y="86.376838"/>
<use xlink:href="#glyph-0-9" x="250.795824" y="86.376838"/>
<use xlink:href="#glyph-0-10" x="254.613077" y="86.376838"/>
</g>
<path fill-rule="nonzero" fill="rgb(99.607849%, 95.292664%, 78.039551%)" fill-opacity="1" stroke-width="0.3985" stroke-linecap="butt" stroke-linejoin="miter" stroke="rgb(98.429871%, 74.900818%, 14.118958%)" stroke-opacity="1" stroke-miterlimit="10" d="M 276.380144 35.51215 L 276.380144 41.024504 C 276.380144 41.850574 277.049613 42.520043 277.875683 42.520043 L 358.50951 42.520043 C 359.33558 42.520043 360.005049 41.850574 360.005049 41.024504 L 360.005049 35.51215 C 360.005049 34.68608 359.33558 34.016611 358.50951 34.016611 L 277.875683 34.016611 C 277.049613 34.016611 276.380144 34.68608 276.380144 35.51215 Z M 276.380144 35.51215 " transform="matrix(0.997759, 0, 0, -0.997759, 10.387669, 122.143504)"/>
<g fill="rgb(88.587952%, 67.411804%, 12.70752%)" fill-opacity="1">
<use xlink:href="#glyph-0-3" x="307.033385" y="85.700358"/>
<use xlink:href="#glyph-0-4" x="312.107284" y="85.700358"/>
<use xlink:href="#glyph-0-5" x="314.941347" y="85.700358"/>
</g>
<g fill="rgb(88.587952%, 67.411804%, 12.70752%)" fill-opacity="1">
<use xlink:href="#glyph-0-11" x="320.690884" y="85.700358"/>
<use xlink:href="#glyph-0-9" x="322.74424" y="85.700358"/>
<use xlink:href="#glyph-0-12" x="326.561493" y="85.700358"/>
<use xlink:href="#glyph-0-13" x="329.847838" y="85.700358"/>
<use xlink:href="#glyph-0-14" x="333.544714" y="85.700358"/>
<use xlink:href="#glyph-0-15" x="339.416019" y="85.700358"/>
<use xlink:href="#glyph-0-9" x="341.179916" y="85.700358"/>
<use xlink:href="#glyph-0-16" x="344.997169" y="85.700358"/>
</g>
<path fill-rule="nonzero" fill="rgb(96.076965%, 96.076965%, 96.076965%)" fill-opacity="1" stroke-width="0.3985" stroke-linecap="butt" stroke-linejoin="miter" stroke="rgb(72.549438%, 72.549438%, 72.549438%)" stroke-opacity="1" stroke-miterlimit="10" d="M 198.428108 18.501372 L 198.428108 28.269356 C 198.428108 29.095426 199.097577 29.764895 199.923647 29.764895 L 350.006079 29.764895 C 350.832149 29.764895 351.501618 29.095426 351.501618 28.269356 L 351.501618 18.501372 C 351.501618 17.679217 350.832149 17.009748 350.006079 17.009748 L 199.923647 17.009748 C 199.097577 17.009748 198.428108 17.679217 198.428108 18.501372 Z M 198.428108 18.501372 " transform="matrix(0.997759, 0, 0, -0.997759, 10.387669, 122.143504)"/>
<g fill="rgb(0%, 0%, 0%)" fill-opacity="1">
<use xlink:href="#glyph-0-2" x="282.883627" y="101.092785"/>
</g>
<g fill="rgb(0%, 0%, 0%)" fill-opacity="1">
<use xlink:href="#glyph-5-0" x="239.466145" y="118.420865"/>
<use xlink:href="#glyph-5-3" x="242.868113" y="118.420865"/>
<use xlink:href="#glyph-5-2" x="247.241844" y="118.420865"/>
</g>
<g fill="rgb(0%, 0%, 0%)" fill-opacity="1">
<use xlink:href="#glyph-4-10" x="253.460712" y="118.420865"/>
<use xlink:href="#glyph-4-11" x="257.216555" y="118.420865"/>
<use xlink:href="#glyph-4-7" x="261.441579" y="118.420865"/>
<use xlink:href="#glyph-4-17" x="265.804177" y="118.420865"/>
<use xlink:href="#glyph-4-13" x="270.332977" y="118.420865"/>
<use xlink:href="#glyph-4-10" x="272.34887" y="118.420865"/>
<use xlink:href="#glyph-4-8" x="276.104712" y="118.420865"/>
</g>
<g fill="rgb(0%, 0%, 0%)" fill-opacity="1">
<use xlink:href="#glyph-4-6" x="281.971079" y="118.420865"/>
<use xlink:href="#glyph-4-3" x="284.856946" y="118.420865"/>
<use xlink:href="#glyph-4-2" x="288.612789" y="118.420865"/>
<use xlink:href="#glyph-4-11" x="291.851736" y="118.420865"/>
<use xlink:href="#glyph-4-18" x="296.07676" y="118.420865"/>
<use xlink:href="#glyph-4-19" x="298.092653" y="118.420865"/>
<use xlink:href="#glyph-4-3" x="301.986069" y="118.420865"/>
<use xlink:href="#glyph-4-6" x="305.741911" y="118.420865"/>
</g>
<g fill="rgb(0%, 0%, 0%)" fill-opacity="1">
<use xlink:href="#glyph-4-20" x="311.442871" y="118.420865"/>
<use xlink:href="#glyph-4-1" x="315.805469" y="118.420865"/>
<use xlink:href="#glyph-4-7" x="319.864292" y="118.420865"/>
<use xlink:href="#glyph-4-3" x="324.22689" y="118.420865"/>
<use xlink:href="#glyph-4-18" x="327.982733" y="118.420865"/>
</g>
</svg>
